#tb 0: 1/1000
0,          0,          0,        0,      768, 7c2818db2632e5c5beee17e7105d9209
0,         33,         33,        0,      768, cead72bd22995e98b54a91c7b4a20975
0,         66,         66,        0,      768, eb6baee5d65d778052c88ba5db2f9174
0,        100,        100,        0,      768, 1f5f38e89e985e9e4172446de05e91fd
0,        133,        133,        0,      768, 57b57ffcb03627942fc5868324a10feb
0,        166,        166,        0,      768, 4b4066a452d8e9cd687cd611f5d9cb88
0,        200,        200,        0,      768, 113e5069b2a4d2c2e802b72649eb435d
0,        233,        233,        0,      768, e176bb233f76f9fd4c55d62d53487b60
0,        266,        266,        0,      768, f2ff3def712a846ea7b678bd9078e32b
0,        300,        300,        0,      768, 21007ed1c727c5ccc5955188a2cec276
